<svg width="24" height="24" viewBox="0 0 24 24" fill="none" xmlns="http://www.w3.org/2000/svg">
<mask id="mask0_28_343" style="mask-type:alpha" maskUnits="userSpaceOnUse" x="3" y="1" width="19" height="18">
<path fill-rule="evenodd" clip-rule="evenodd" d="M3.00009 1H21.497V18.348H3.00009V1Z" fill="white"/>
</mask>
<g mask="url(#mask0_28_343)">
<path fill-rule="evenodd" clip-rule="evenodd" d="M12.2471 2.5C8.7521 2.5 6.3161 5.238 6.3161 7.695C6.3161 9.774 5.7391 10.735 5.2291 11.583C4.8201 12.264 4.4971 12.802 4.4971 13.971C4.6641 15.857 5.90911 16.848 12.2471 16.848C18.5501 16.848 19.8341 15.813 20.0001 13.906C19.9971 12.802 19.6741 12.264 19.2651 11.583C18.7551 10.735 18.1781 9.774 18.1781 7.695C18.1781 5.238 15.7421 2.5 12.2471 2.5M12.2471 18.348C7.5711 18.348 3.3451 18.018 3.0001 14.035C2.9971 12.387 3.5001 11.549 3.9441 10.811C4.3931 10.063 4.8161 9.358 4.8161 7.695C4.8161 4.462 7.8021 1 12.2471 1C16.6921 1 19.6781 4.462 19.6781 7.695C19.6781 9.358 20.1011 10.063 20.5501 10.811C20.9941 11.549 21.4971 12.387 21.4971 13.971C21.1481 18.018 16.9231 18.348 12.2471 18.348" fill="white"/>
</g>
<path fill-rule="evenodd" clip-rule="evenodd" d="M12.1983 22.5H12.1963C11.0753 22.499 10.0143 22.005 9.2093 21.108C8.9323 20.801 8.9573 20.326 9.2653 20.05C9.5733 19.772 10.0473 19.797 10.3243 20.106C10.8423 20.683 11.5073 21 12.1973 21H12.1983C12.8913 21 13.5593 20.683 14.0783 20.105C14.3563 19.798 14.8303 19.773 15.1373 20.05C15.4453 20.327 15.4703 20.802 15.1933 21.109C14.3853 22.006 13.3223 22.5 12.1983 22.5" fill="white"/>
</svg>
