<svg width="38" height="36" viewBox="0 0 38 36" fill="none" xmlns="http://www.w3.org/2000/svg">
<path d="M17.2718 1.96718C18.0432 0.642641 19.9568 0.642642 20.7282 1.96718L25.3453 9.89428C25.628 10.3795 26.1015 10.7235 26.6503 10.8424L35.6162 12.7839C37.1143 13.1083 37.7056 14.9282 36.6843 16.0712L30.5719 22.9119C30.1978 23.3307 30.0169 23.8873 30.0735 24.446L30.9976 33.573C31.152 35.0981 29.6039 36.2228 28.2013 35.6047L19.8065 31.9054C19.2927 31.679 18.7073 31.679 18.1935 31.9054L9.79873 35.6047C8.39606 36.2228 6.848 35.0981 7.00241 33.573L7.92652 24.446C7.98308 23.8873 7.8022 23.3307 7.42807 22.9119L1.31571 16.0712C0.294405 14.9282 0.885711 13.1083 2.38382 12.7839L11.3497 10.8424C11.8985 10.7235 12.372 10.3795 12.6547 9.89428L17.2718 1.96718Z" fill="#F9C130"/>
</svg>
